{"title":"A Streetcar Named Desire [1951] 720p BRRip H264 AC3 - CODY","uid":7421418,"size":1974311904,"categoryP":"video","categoryS":"hd___movies","magnet":"?xt=urn:btih:d12b109f1311d7dbbab9e95c6160f7e6564a98b2&amp;dn=A+Streetcar+Named+Desire+%5B1951%5D+720p+BRRip+H264+AC3+-+CODY&amp;tr=udp%3A%2F%2Ftracker.openbittorrent.com%3A80&amp;tr=udp%3A%2F%2Fopen.demonii.com%3A1337&amp;tr=udp%3A%2F%2Ftracker.coppersurfer.tk%3A6969&amp;tr=udp%3A%2F%2Fexodus.desync.com%3A6969","seeders":1,"leechers":2,"uploader":"CODYBOSS1969","files":5,"time":1341677483,"description":"General\nComplete name                            : A Streetcar Named Desire [1951] 720p BRRip H264 AC3 - CODY.mp4\nFormat                                   : MPEG-4\nFormat profile                           : Base Media\nCodec ID                                 : isom\nFile size                                : 1.84 GiB\nDuration                                 : 2h 4mn\nOverall bit rate mode                    : Variable\nOverall bit rate                         : 2 107 Kbps\nEncoded date                             : UTC 2012-07-04 02:23:44\n\nVideo\nID                                       : 1\nFormat                                   : AVC\nFormat/Info                              : Advanced Video Codec\nFormat profile                           : &lt;a class=&quot;__cf_email__&quot; href=&quot;/cdn-cgi/l/email-protection&quot; data-cfemail=&quot;8fc7e6e8e7cfc3bba1be&quot;&gt;[email&amp;#160;protected]&lt;/a&gt;&lt;script cf-hash='f9e31' type=&quot;text/javascript&quot;&gt;\n/* &lt;![CDATA[ */!function(){try{var t=&quot;currentScript&quot;in document?document.currentScript:function(){for(var t=document.getElementsByTagName(&quot;script&quot;),e=t.length;e--;)if(t[e].getAttribute(&quot;cf-hash&quot;))return t[e]}();if(t&amp;&amp;t.previousSibling){var e,r,n,i,c=t.previousSibling,a=c.getAttribute(&quot;data-cfemail&quot;);if(a){for(e=&quot;&quot;,r=parseInt(a.substr(0,2),16),n=2;a.length-n;n+=2)i=parseInt(a.substr(n,2),16)^r,e+=String.fromCharCode(i);e=document.createTextNode(e),c.parentNode.replaceChild(e,c)}}}catch(u){}}();/* ]]&gt; */&lt;/script&gt;\nFormat settings, CABAC                   : Yes\nFormat settings, ReFrames                : 5 frames\nCodec ID                                 : avc1\nCodec ID/Info                            : Advanced Video Coding\nDuration                                 : 2h 4mn\nBit rate mode                            : Variable\nBit rate                                 : 1 720 Kbps\nMaximum bit rate                         : 20.0 Mbps\nWidth                                    : 992 pixels\nHeight                                   : 720 pixels\nDisplay aspect ratio                     : 1.378\nFrame rate mode                          : Constant\nFrame rate                               : 23.976 fps\nColor space                              : YUV\nChroma subsampling                       : 4:2:0\nBit depth                                : 8 bits\nScan type                                : Progressive\nBits/(Pixel*Frame)                       : 0.100\nStream size                              : 1.50 GiB (82%)\nWriting library                          : x264 core 119 r2106 07efeb4\nEncoding settings                        : rc=2pass\n\nAudio\nID                                       : 2\nFormat                                   : AC-3\nFormat/Info                              : Audio Coding 3\nMode extension                           : CM (complete main)\nCodec ID                                 : ac-3\nDuration                                 : 2h 4mn\nBit rate mode                            : Constant\nBit rate                                 : 384 Kbps\nChannel(s)                               : 1 channel\nChannel positions                        : Front: C\nSampling rate                            : 48.0 KHz\nBit depth                                : 16 bits\nCompression mode                         : Lossy\nStream size                              : 343 MiB (18%)\n\n\n\nIMDB link:                                &lt;a href=&quot; http://www.imdb.com/title/tt0044081/&quot; rel=&quot;nofollow&quot; target=&quot;_NEW&quot;&gt; http://www.imdb.com/title/tt0044081/&lt;/a&gt;\n\n\nSubtitles included                       : Romanian\n\n\nPlease seed at least 1,5:1 . This way this torrent has a chance to survive !\n\n\nThanks . Enjoy !! \n","torrent":{"xt":"urn:btih:d12b109f1311d7dbbab9e95c6160f7e6564a98b2","amp;dn":"A+Streetcar+Named+Desire+%5B1951%5D+720p+BRRip+H264+AC3+-+CODY","amp;tr":["udp%3A%2F%2Ftracker.openbittorrent.com%3A80","udp%3A%2F%2Fopen.demonii.com%3A1337","udp%3A%2F%2Ftracker.coppersurfer.tk%3A6969","udp%3A%2F%2Fexodus.desync.com%3A6969"],"infoHash":"d12b109f1311d7dbbab9e95c6160f7e6564a98b2","infoHashBuffer":{"type":"Buffer","data":[209,43,16,159,19,17,215,219,186,185,233,92,97,96,247,230,86,74,152,178]},"announce":[],"urlList":[]}}